<!-- <svg xmlns="http://www.w3.org/2000/svg" fill="none" viewBox="0 0 128 128">
    <path d="M50.4 78.5a75.1 75.1 0 0 0-28.5 6.9l24.2-65.7c.7-2 1.9-3.2 3.4-3.2h29c1.5 0 2.7 1.2 3.4 3.2l24.2 65.7s-11.6-7-28.5-7L67 45.5c-.4-1.7-1.6-2.8-2.9-2.8-1.3 0-2.5 1.1-2.9 2.7L50.4 78.5Zm-1.1 28.2Zm-4.2-20.2c-2 6.6-.6 15.8 4.2 20.2a17.5 17.5 0 0 1 .2-.7 5.5 5.5 0 0 1 5.7-4.5c2.8.1 4.3 1.5 4.7 4.7.2 1.1.2 2.3.2 3.5v.4c0 2.7.7 5.2 2.2 7.4a13 13 0 0 0 5.7 4.9v-.3l-.2-.3c-1.8-5.6-.5-9.5 4.4-12.8l1.5-1a73 73 0 0 0 3.2-2.2 16 16 0 0 0 6.8-11.4c.3-2 .1-4-.6-6l-.8.6-1.6 1a37 37 0 0 1-22.4 2.7c-5-.7-9.7-2-13.2-6.2Z" />
    <style>
        path { fill: #000; }
        @media (prefers-color-scheme: dark) {
            path { fill: #FFF; }
        }
    </style>
</svg> -->
<svg xmlns="http://www.w3.org/2000/svg" version="1.1" xmlns:xlink="http://www.w3.org/1999/xlink" xmlns:svgjs="http://svgjs.dev/svgjs" viewBox="0 0 600 400"><path d="M210.6506690834314 254.93822102762275C208.65466179990275 202.24360788878812 165.14169182919963 99.64879485981676 204.66264723284547 96.85438161111884C244.18360263649132 94.05996836242092 277.71653110328816 240.16775644835843 329.2135352943689 246.554981281529C380.71053948544966 252.94220611469956 349.1736183021814 159.5290311675967 359.15365980608766 116.01605611063056 " fill="none" stroke-width="27" stroke="url(&quot;#SvgjsLinearGradient1000&quot;)" stroke-linecap="butt" transform="matrix(2.155724745040912,0,0,2.155724745040912,-197.54784279568258,-169.15618274214856)" stroke-dasharray="0 0" stroke-opacity="1"></path><defs><linearGradient id="SvgjsLinearGradient1000" gradientTransform="rotate(321, 0.5, 0.5)"><stop stop-color="hsl(0, 0%, 100%)" offset="0"></stop><stop stop-color="hsl(0, 0%, 100%)" offset="1"></stop></linearGradient></defs></svg>